<svg width="100" height="100" viewBox="0 0 100 100" fill="#ADD7FF" xmlns="http://www.w3.org/2000/svg">
<path d="M50 0C22.3861 0 0 22.3861 0 50C0 77.6139 22.3861 100 50 100C77.6139 100 100 77.6139 100 50C99.9691 22.3991 77.6009 0.0309246 50 0ZM50 96.6667C24.2269 96.6667 3.33333 75.7731 3.33333 50C3.33333 24.2269 24.2269 3.33333 50 3.33333C75.7731 3.33333 96.6667 24.2269 96.6667 50C96.6374 75.7609 75.7609 96.6374 50 96.6667Z" fill="#ADD7FF"/>
<path d="M73.3333 30H26.6667C25.7463 30 25 30.7463 25 31.6667V68.3333C25 69.2537 25.7463 70 26.6667 70H73.3333C74.2537 70 75 69.2537 75 68.3333V31.6667C75 30.7463 74.2537 30 73.3333 30ZM68.833 33.3333L50 49.4718L31.167 33.3333H68.833ZM28.3333 66.6667V35.2897L48.9152 52.9313C49.5386 53.4652 50.4582 53.4652 51.0815 52.9313L71.6667 35.2897V66.6667H28.3333Z" fill="#ADD7FF"/>
</svg>
