<svg width="100" height="100" viewBox="0 0 100 100" fill="none" xmlns="http://www.w3.org/2000/svg">
<path d="M85.3553 14.6447C75.9115 5.20078 63.3553 0 50 0C36.6447 0 24.0885 5.20078 14.6447 14.6447C5.20078 24.0885 0 36.6447 0 50C0 63.3553 5.20078 75.9115 14.6447 85.3553C24.0885 94.7992 36.6447 100 50 100C63.3553 100 75.9115 94.7992 85.3553 85.3553C94.799 75.9113 100 63.3553 100 50C100 36.6447 94.7992 24.0885 85.3553 14.6447ZM50 96.8422C24.1711 96.8422 3.15781 75.8289 3.15781 50C3.15781 24.1711 24.1711 3.15781 50 3.15781C75.8289 3.15781 96.8422 24.1711 96.8422 50C96.8422 75.8289 75.8289 96.8422 50 96.8422Z" fill="#ADD7FF"/>
<path d="M67.9385 18.9475H32.0615C24.8303 18.9475 18.9474 24.8305 18.9474 32.0615V67.9389C18.9474 75.1697 24.8305 81.0527 32.0615 81.0527H67.9389C75.1697 81.0527 81.0527 75.1697 81.0527 67.9387V32.0615C81.0525 24.8303 75.1697 18.9475 67.9385 18.9475ZM77.8947 67.9385C77.8947 73.4283 73.4283 77.8947 67.9385 77.8947H32.0615C26.5717 77.8947 22.1053 73.4283 22.1053 67.9385V32.0615C22.1053 26.5717 26.5717 22.1053 32.0615 22.1053H67.9389C73.4285 22.1053 77.8949 26.5717 77.8949 32.0615V67.9385H77.8947Z" fill="#ADD7FF"/>
<path d="M66.2895 49.0664C65.8225 40.7592 59.0625 34.0762 50.7508 33.7014C41.1594 33.2689 33.2635 41.1686 33.7016 50.7611C34.0815 59.0736 40.7699 65.8303 49.0781 66.2904C52.5842 66.4848 55.8676 65.5625 58.61 63.8502C59.4643 63.3168 59.6035 62.1287 58.8914 61.4168C58.8838 61.4092 58.8764 61.4018 58.8689 61.3943C58.35 60.8752 57.5451 60.7969 56.9215 61.1844C54.8725 62.4576 52.4504 63.1846 49.8594 63.1574C42.5439 63.0805 36.6414 56.9379 36.8475 49.625C37.0547 42.2654 43.3348 36.3982 50.843 36.8688C57.3129 37.2742 62.5793 42.4332 63.1123 48.8939C63.3293 51.5258 62.7633 54.0123 61.626 56.1512C61.3004 56.7637 61.4008 57.5148 61.8912 58.0053C61.8992 58.0133 61.9074 58.0215 61.9154 58.0295C62.6523 58.7664 63.8986 58.5932 64.391 57.6748C65.7547 55.1307 66.465 52.1869 66.2895 49.0664Z" fill="#ADD7FF"/>
<path d="M66.8422 35.2631C69.1676 35.2631 71.0527 33.378 71.0527 31.0525C71.0527 28.7271 69.1676 26.842 66.8422 26.842C64.5168 26.842 62.6317 28.7271 62.6317 31.0525C62.6317 33.378 64.5168 35.2631 66.8422 35.2631Z" fill="#ADD7FF"/>
</svg>
