<svg width="100" height="100" viewBox="0 0 100 100" fill="none" xmlns="http://www.w3.org/2000/svg">
<path d="M50 0C22.4115 0 0 22.4115 0 50C0 77.5885 22.4115 100 50 100C77.5885 100 100 77.5885 100 50C100 22.4115 77.5885 0 50 0ZM50 4.34783C75.2387 4.34783 95.6522 24.7613 95.6522 50C95.6522 75.2387 75.2387 95.6522 50 95.6522C24.7613 95.6522 4.34783 75.2387 4.34783 50C4.34783 24.7613 24.7613 4.34783 50 4.34783ZM30.4348 21.7391C26.8587 21.7391 23.913 24.6848 23.913 28.2609C23.913 31.837 26.8587 34.7826 30.4348 34.7826C34.0109 34.7826 36.9565 31.837 36.9565 28.2609C36.9565 24.6848 34.0109 21.7391 30.4348 21.7391ZM30.4348 26.087C31.6611 26.087 32.6087 27.0345 32.6087 28.2609C32.6087 29.4872 31.6611 30.4348 30.4348 30.4348C29.2084 30.4348 28.2609 29.4872 28.2609 28.2609C28.2609 27.0345 29.2084 26.087 30.4348 26.087ZM26.087 36.9565C25.5104 36.9566 24.9575 37.1856 24.5498 37.5933C24.1422 38.001 23.9131 38.5539 23.913 39.1304V71.7391C23.9131 72.3157 24.1422 72.8686 24.5498 73.2763C24.9575 73.6839 25.5104 73.913 26.087 73.913H34.7826C35.3591 73.913 35.9121 73.6839 36.3197 73.2763C36.7274 72.8686 36.9565 72.3157 36.9565 71.7391V39.1304C36.9565 38.5539 36.7274 38.001 36.3197 37.5933C35.9121 37.1856 35.3591 36.9566 34.7826 36.9565H26.087ZM43.4783 36.9565C42.9017 36.9566 42.3488 37.1856 41.9411 37.5933C41.5335 38.001 41.3044 38.5539 41.3043 39.1304V71.7391C41.3044 72.3157 41.5335 72.8686 41.9411 73.2763C42.3488 73.6839 42.9017 73.913 43.4783 73.913H52.1739C52.7505 73.913 53.3034 73.6839 53.711 73.2763C54.1187 72.8686 54.3478 72.3157 54.3478 71.7391V55.4348C54.3478 52.4358 56.7836 50 59.7826 50C62.7816 50 65.2174 52.4358 65.2174 55.4348V60.8696V71.7391C65.2175 72.3157 65.4465 72.8686 65.8542 73.2763C66.2619 73.6839 66.8148 73.913 67.3913 73.913H76.087C76.6635 73.913 77.2164 73.6839 77.6241 73.2763C78.0318 72.8686 78.2608 72.3157 78.2609 71.7391V53.2609C78.2609 44.2818 70.9356 36.9565 61.9565 36.9565C59.1598 36.9565 56.6516 37.8612 54.3478 39.1092C54.3422 38.5364 54.1106 37.9889 53.7036 37.5858C53.2965 37.1827 52.7468 36.9566 52.1739 36.9565H43.4783ZM28.2609 41.3043H32.6087V69.5652H28.2609V41.3043ZM45.6522 41.3043H50V43.0791C50.0001 43.5055 50.1255 43.9225 50.3607 44.2781C50.5958 44.6337 50.9304 44.9124 51.3227 45.0794C51.715 45.2463 52.1478 45.2943 52.5671 45.2172C52.9865 45.1401 53.3739 44.9414 53.6812 44.6459C55.8352 42.5768 58.7319 41.3043 61.9565 41.3043C68.5861 41.3043 73.913 46.6313 73.913 53.2609V69.5652H69.5652V60.8696V55.4348C69.5652 50.0642 65.1532 45.6522 59.7826 45.6522C54.4121 45.6522 50 50.0642 50 55.4348V69.5652H45.6522V41.3043Z" fill="#ADD7FF"/>
</svg>
