<svg width="100" height="100" viewBox="0 0 100 100" fill="#ADD7FF" xmlns="http://www.w3.org/2000/svg">
<path d="M50 0C22.3861 0 0 22.3861 0 50C0 77.6139 22.3861 100 50 100C77.6139 100 100 77.6139 100 50C99.9691 22.3991 77.6009 0.0309246 50 0ZM50 96.6667C24.2269 96.6667 3.33333 75.7731 3.33333 50C3.33333 24.2269 24.2269 3.33333 50 3.33333C75.7731 3.33333 96.6667 24.2269 96.6667 50C96.6374 75.7609 75.7609 96.6374 50 96.6667Z" fill="#ADD7FF"/>
<path d="M71.9116 56.097L57.7653 53.597C57.0492 53.4709 56.3346 53.8225 55.9985 54.467L52.5684 61.0401C46.499 58.3521 41.6488 53.4994 38.9632 47.4284L45.5298 43.9982C46.1743 43.6621 46.5259 42.9476 46.3997 42.2315L43.8997 28.0868C43.8216 27.6416 43.5661 27.2477 43.1917 26.9946C39.6151 24.5825 34.9992 24.34 31.1898 26.3648C27.3804 28.3903 25 32.3527 25 36.6667C25.0236 57.828 42.172 74.9764 63.3333 75C67.6481 74.9992 71.6105 72.6172 73.6353 68.807C75.6592 64.996 75.415 60.3793 72.9997 56.8034C72.7474 56.4307 72.3551 56.1752 71.9116 56.097ZM63.3333 71.6667C44.0129 71.6447 28.3553 55.9872 28.3333 36.6667C28.3325 33.7061 29.9032 30.9676 32.4585 29.4719C35.0138 27.9769 38.1714 27.9501 40.752 29.4019L42.9069 41.6113L36.0734 45.1782C35.3247 45.5689 34.9862 46.4567 35.2848 47.2469C38.3317 55.3068 44.6924 61.6716 52.7515 64.7217C53.5417 65.0204 54.4295 64.6818 54.8202 63.9331L58.3887 57.0996L70.5981 59.2554C72.0467 61.8352 72.0174 64.9894 70.5233 67.5432C69.0283 70.0961 66.2923 71.6659 63.3333 71.6667Z" fill="#ADD7FF"/>
</svg>
