<svg width="100" height="100" viewBox="0 0 100 100" fill="#ADD7FF" xmlns="http://www.w3.org/2000/svg">
<path d="M50 0C22.3861 0 0 22.3861 0 50C0 77.6139 22.3861 100 50 100C77.6139 100 100 77.6139 100 50C99.9691 22.3991 77.6009 0.0309246 50 0ZM50 96.6667C24.2269 96.6667 3.33333 75.7731 3.33333 50C3.33333 24.2269 24.2269 3.33333 50 3.33333C75.7731 3.33333 96.6667 24.2269 96.6667 50C96.6374 75.7609 75.7609 96.6374 50 96.6667Z" fill="#ADD7FF"/>
<path d="M50 23.3333C38.9591 23.3455 30.0122 32.2925 30 43.3333C30 57.1964 48.0534 75.4101 48.8216 76.1784C49.4727 76.8286 50.5273 76.8286 51.1784 76.1784C51.9466 75.4101 70 57.1964 70 43.3333C69.9878 32.2925 61.0409 23.3455 50 23.3333ZM50 72.5887C46.0181 68.3333 33.3333 53.9233 33.3333 43.3333C33.3333 34.1284 40.7951 26.6667 50 26.6667C59.2049 26.6667 66.6667 34.1284 66.6667 43.3333C66.6667 53.9136 53.9803 68.3333 50 72.5887Z" fill="#ADD7FF"/>
<path d="M50 33.3333C46.3184 33.3333 43.3333 36.3184 43.3333 40C43.3333 43.6816 46.3184 46.6667 50 46.6667C53.6817 46.6667 56.6667 43.6816 56.6667 40C56.6667 36.3184 53.6817 33.3333 50 33.3333ZM50 43.3333C48.1592 43.3333 46.6667 41.8408 46.6667 40C46.6667 38.1592 48.1592 36.6667 50 36.6667C51.8408 36.6667 53.3333 38.1592 53.3333 40C53.3333 41.8408 51.8408 43.3333 50 43.3333Z" fill="#ADD7FF"/>
</svg>
